<?xml version="1.0" standalone="no"?><!DOCTYPE svg PUBLIC "-//W3C//DTD SVG 1.1//EN" "http://www.w3.org/Graphics/SVG/1.1/DTD/svg11.dtd"><svg t="1578982422267" class="icon" viewBox="0 0 1024 1024" version="1.1" xmlns="http://www.w3.org/2000/svg" p-id="13165" width="32" height="32" xmlns:xlink="http://www.w3.org/1999/xlink"><defs><style type="text/css"></style></defs><path d="M767.420809 213.3399l-130.449028 0c0-24.559349-19.108197-54.235229-42.701544-54.235229l-149.400658 0c-23.590278 0-42.698474 29.67588-42.698474 54.235229l-130.445958 0c-28.789697 0-60.519352 4.300956-60.519352 33.145911l0 44.62536 601.704045 0 0-44.62536C812.911886 217.641879 796.256554 213.3399 767.420809 213.3399z" p-id="13166" fill="#666666"></path><path d="M264.419763 343.299787l0 424.964738c0 43.212174 42.3659 95.898117 85.575004 95.898117l339.157443 0c43.258223 0 71.571059-52.685943 71.571059-95.898117l0-424.964738L264.419763 343.299787zM406.929478 777.151939l-52.212152 0 0-376.045585 52.212152 0L406.929478 777.151939zM537.71415 777.151939l-52.212152 0 0-376.045585 52.212152 0L537.71415 777.151939zM668.498822 777.151939l-52.212152 0 0-376.045585 52.212152 0L668.498822 777.151939z" p-id="13167" fill="#666666"></path></svg>