<?xml version="1.0" standalone="no"?><!DOCTYPE svg PUBLIC "-//W3C//DTD SVG 1.1//EN" "http://www.w3.org/Graphics/SVG/1.1/DTD/svg11.dtd"><svg t="1576742229992" class="icon" viewBox="0 0 1024 1024" version="1.1" xmlns="http://www.w3.org/2000/svg" p-id="3901" width="32" height="32" xmlns:xlink="http://www.w3.org/1999/xlink"><defs><style type="text/css"></style></defs><path d="M669.545461 661.450555c-12.842529 12.845833-83.480571 64.217602-102.748494 134.858947-77.063435-44.952982-231.188654-154.123567-308.250438-333.933845 64.222558-25.688362 109.17554-83.487178 115.594327-96.329707 0 0-96.324752-166.9694-256.872061-256.875365 0 0-89.91092 64.217602-96.329707 160.54731l0 0c0 0-32.110453 166.9694 269.717894 481.638625 256.873713 263.297456 385.31057 282.563727 468.797748 269.716243 12.842529 0 25.681755-6.418787 38.52924-6.418787l0 0 0 0c77.056828-25.688362 122.016418-96.329707 122.016418-96.329707C842.936952 764.202353 669.545461 661.450555 669.545461 661.450555L669.545461 661.450555zM785.138137 417.421023 785.138137 417.421023C778.721001 417.421023 785.138137 417.421023 785.138137 417.421023 778.721001 417.421023 778.721001 417.421023 785.138137 417.421023 778.721001 417.421023 778.721001 417.421023 785.138137 417.421023c-12.842529 19.26462 12.849137 32.107149 25.688362 12.842529 25.688362-64.217602 6.423742-134.858947-38.52924-179.81193l0 0 0 0 0 0 0 0c-44.952982-44.952982-122.016418-70.641345-179.81193-38.52924-19.26462 6.418787 0 32.107149 12.842529 25.688362l0 0 0 0 0 0 0 0c6.423742 0 6.423742 0 12.845833-6.423742 12.842529 0 19.26462-6.425394 32.107149-6.425394 38.534195 0 70.641345 19.26462 102.751798 44.952982 25.688362 25.688362 44.952982 64.217602 44.952982 102.751798 0 12.842529 0 25.688362-6.423742 32.107149C785.138137 410.99728 785.138137 410.99728 785.138137 417.421023L785.138137 417.421023zM875.044101 134.858947 875.044101 134.858947 875.044101 134.858947 875.044101 134.858947C875.044101 128.435205 875.044101 128.435205 875.044101 134.858947 791.563531 51.376725 682.389642 0 566.796967 0c-51.376725 0-102.751798 6.423742-147.70478 32.110453-19.26462 6.418787-6.418787 32.103846 12.845833 25.681755l0 0 0 0 6.423742 0c12.842529-6.418787 19.26462-6.418787 25.681755-12.842529 32.110453-6.423742 64.22421-12.842529 96.329707-12.842529 109.170585 0 211.922383 44.952982 282.563727 122.009811 77.063435 77.063435 122.016418 173.393143 122.016418 282.563727 0 32.110453-6.423742 64.217602-12.845833 96.329707 0 12.842529-6.425394 19.26462-6.425394 25.688362l0 6.418787 0 0 0 0 0 0c-6.418787 19.269575 19.271227 32.110453 25.688362 12.845833 19.26462-44.952982 32.110453-102.751798 32.110453-154.123567C1009.909656 321.091316 958.532931 218.339518 875.044101 134.858947L875.044101 134.858947z" p-id="3902" fill="#666666"></path></svg>